<svg xmlns="http://www.w3.org/2000/svg" viewBox="0 0 512 512">
  <path transform="translate(0, 32)" d="M411-31h-54c-48 0-87 39-87 87v138h-95c-3 0-5 1-7 1-4 0-8-1-13-1h-54c-48 0-87 39-87 87v111c0 48 39 87 87 87h54c48 0 87-39 87-87V281c0-10-2-19-5-28h33v101c0 16 13 28 29 28s29-12 29-28V253h17c4 0 8 1 12 1h54c48 0 87-39 87-87V56c0-48-39-87-87-87zM184 392c0 15-13 28-29 28h-54c-16 0-28-12-28-28V281c0-16 12-28 28-28h54c16 0 29 12 29 28v111zm255-225c0 16-12 28-28 28h-54c-2 0-4 0-6-1h3-3c-13-3-23-13-23-27V56c0-15 13-28 29-28h54c15 0 28 12 28 28z"/>
</svg>
