<svg height="512" width="512" viewBox="0 0 512 512" xmlns="http://www.w3.org/2000/svg">
  <path d="m 2.8465329,417.75966 c 1.65604,-24.949 15.7383901,-94.57789 19.4134901,-95.98815 0.74314,-0.28517 14.26364,2.66593 30.04557,6.55799 15.78193,3.89207 35.89441,8.72532 44.69441,10.74055 8.800007,2.01524 16.468707,4.24629 17.041557,4.95789 0.72479,0.90035 0.66088,4.59161 -0.21017,12.13777 -1.57552,13.64917 -3.35511,55.29134 -2.6297,61.53444 0.29976,2.57977 0.25593,5.84227 -0.0974,7.25 l -0.64238,2.55951 H 56.330633 2.1993629 Z m 398.0491871,7.19049 c -0.35332,-1.40773 -0.39715,-4.67023 -0.0974,-7.25 0.72541,-6.2431 -1.05418,-47.88527 -2.6297,-61.53444 -0.87105,-7.54616 -0.93496,-11.23742 -0.21017,-12.13777 0.57285,-0.7116 8.24155,-2.94265 17.04155,-4.95789 8.8,-2.01523 28.91248,-6.84848 44.69441,-10.74055 15.78192,-3.89206 29.30243,-6.84316 30.04557,-6.55799 3.6751,1.41026 17.75745,71.03915 19.41349,95.98815 l 0.64717,9.75 H 455.66937 401.5381 l -0.64239,-2.55951 z M 76.000003,302.05987 c -22,-9.5458 -40.9,-18.02758 -42,-18.84842 -1.97352,-1.47267 -1.97554,-1.56334 -0.15317,-6.84711 5.27706,-15.30023 26.8445,-65.43093 29.15624,-67.76987 1.20375,-1.21791 6.66797,1.13436 39.197837,16.87407 20.78951,10.0591 38.18658,18.64341 38.66017,19.07627 0.4736,0.43285 -0.94114,5.21452 -3.14386,10.62592 -5.54647,13.62601 -11.50638,32.59402 -14.7172,46.83893 -3.58812,15.91881 -3.92793,16.96592 -5.58288,17.20309 -0.77942,0.11171 -19.417137,-7.60709 -41.417137,-17.15288 z m 316.475257,14.88469 c -0.53639,-1.4108 -0.97525,-3.12193 -0.97525,-3.80251 0,-0.68058 -1.5542,-7.51378 -3.45377,-15.1849 -3.73337,-15.07657 -9.32984,-32.32394 -14.52802,-44.77281 -1.8196,-4.35766 -2.87996,-8.1801 -2.39289,-8.62593 0.48108,-0.44034 17.88427,-9.03077 38.67378,-19.08987 32.52986,-15.73971 37.99408,-18.09198 39.19783,-16.87407 1.7059,1.72598 9.02775,18.04318 19.48124,43.41519 11.16034,27.08763 11.82636,29.14321 10.00119,30.86721 -1.51316,1.42929 -82.28735,36.63279 -84.05369,36.63279 -0.53634,0 -1.41403,-1.15429 -1.95042,-2.5651 z M 118.67098,199.39009 c -17.69403,-13.26576 -32.170977,-24.48807 -32.170977,-24.93845 0,-1.79769 12.67367,-17.47871 22.139887,-27.3935 13.39955,-14.03451 36.98914,-32.54848 41.47168,-32.54848 1.87355,0 51.38844,57.77874 51.38844,59.96497 0,1.19413 -2.62403,3.4635 -7.56717,6.54443 -10.25658,6.39265 -23.40082,19.14315 -32.89924,31.91376 -4.32672,5.81726 -8.38986,10.57684 -9.02921,10.57684 -0.63934,0 -15.63938,-10.85381 -33.33341,-24.11957 z m 232.34094,13.6039 c -9.54025,-12.82684 -22.67254,-25.57255 -32.94474,-31.97493 -4.94314,-3.08093 -7.56717,-5.3503 -7.56717,-6.54443 0,-2.18623 49.51489,-59.96497 51.38844,-59.96497 4.48254,0 28.07213,18.51397 41.47168,32.54848 9.45583,9.90391 22.13988,25.59527 22.13988,27.38911 0,1.04583 -62.82951,48.20507 -64.96785,48.76425 -1.10846,0.28987 -4.06595,-2.88424 -9.52024,-10.21751 z M 222.01407,165.0822 c -0.76055,-0.5899 -6.07652,-10.97254 -11.81326,-23.07254 -5.73675,-12.1 -12.76088,-26.68687 -15.60919,-32.41527 -2.84831,-5.7284 -4.96119,-10.982206 -4.69529,-11.675126 0.70269,-1.8312 26.50921,-9.95773 37.5299,-11.818254 12.56436,-2.12114 44.05614,-2.15379 56.97237,-0.0591 10.79377,1.750504 36.98504,10.000904 37.70509,11.877324 0.2659,0.69292 -1.84698,5.946726 -4.69529,11.675126 -2.84831,5.7284 -9.87244,20.31527 -15.60919,32.41527 -5.73674,12.1 -11.05271,22.48264 -11.81326,23.07254 -0.92235,0.71539 -3.48124,0.79274 -7.68438,0.23228 -3.46586,-0.46211 -15.30156,-0.84023 -26.30156,-0.84023 -11,0 -22.8357,0.37812 -26.30156,0.84026 -4.20314,0.56046 -6.76203,0.48311 -7.68438,-0.23228 z"/>
</svg>
