<?xml version="1.0" encoding="UTF-8" standalone="no"?>
<svg
   xmlns:dc="http://purl.org/dc/elements/1.1/"
   xmlns:cc="http://creativecommons.org/ns#"
   xmlns:rdf="http://www.w3.org/1999/02/22-rdf-syntax-ns#"
   xmlns:svg="http://www.w3.org/2000/svg"
   xmlns="http://www.w3.org/2000/svg"
   xmlns:sodipodi="http://sodipodi.sourceforge.net/DTD/sodipodi-0.dtd"
   xmlns:inkscape="http://www.inkscape.org/namespaces/inkscape"
   width="48"
   height="48"
   viewBox="0 0 48 48"
   version="1.1"
   id="svg4"
   sodipodi:docname="remove-today-48px.svg"
   inkscape:version="0.92.5 (2060ec1f9f, 2020-04-08)">
  <metadata
     id="metadata10">
    <rdf:RDF>
      <cc:Work
         rdf:about="">
        <dc:format>image/svg+xml</dc:format>
        <dc:type
           rdf:resource="http://purl.org/dc/dcmitype/StillImage" />
      </cc:Work>
    </rdf:RDF>
  </metadata>
  <defs
     id="defs8" />
  <sodipodi:namedview
     pagecolor="#ffffff"
     bordercolor="#666666"
     borderopacity="1"
     objecttolerance="10"
     gridtolerance="10"
     guidetolerance="10"
     inkscape:pageopacity="0"
     inkscape:pageshadow="2"
     inkscape:window-width="1763"
     inkscape:window-height="1292"
     id="namedview6"
     showgrid="false"
     inkscape:zoom="9.8333333"
     inkscape:cx="24.343055"
     inkscape:cy="21.104566"
     inkscape:window-x="764"
     inkscape:window-y="27"
     inkscape:window-maximized="0"
     inkscape:current-layer="svg4" />
  <path
     d="M 22,1.0996094 V 7 h 4 V 1.0996094 Z m 16.070312,5 -3.589843,3.5898437 2.830078,2.8300779 3.589844,-3.5898435 z M 24,11 c -1.21996,0 -2.395328,0.187042 -3.503906,0.525391 L 35.265625,27.126953 C 35.738152,25.840637 36,24.451641 36,23 36,16.37 30.63,11 24,11 Z M 12.425781,19.871094 C 12.156586,20.869864 12,21.915882 12,23 c 0,6.63 5.37,12 12,12 0.901974,0 1.778062,-0.108447 2.623047,-0.296875 z M 2,21 v 4 h 6 v -4 z m 38,0 v 4 h 6 V 21 Z M 10.689453,33.480469 7.0996094,37.070312 9.9296875,39.900391 13.519531,36.310547 Z M 22,39 v 5.900391 h 4 V 39 Z"
     id="path2"
     inkscape:connector-curvature="0"
     sodipodi:nodetypes="ccccccccccsccsscsscccccccccccccccccccccc" />
  <path
     style="fill:none;fill-rule:evenodd;stroke:#000000;stroke-width:5;stroke-linecap:round;stroke-linejoin:round;stroke-miterlimit:4;stroke-dasharray:none;stroke-opacity:1"
     d="M 6.0715719,4.5283116 41.598456,42.180549"
     id="path4629"
     inkscape:connector-curvature="0" />
</svg>
