<svg height="48"
     viewBox="0 0 48 48"
     width="48"
     xmlns="http://www.w3.org/2000/svg">
  <path d="M22 1.1V7h4V1.1Zm16.1 5-3.6 3.6 2.8 2.8 3.6-3.6zM24 11c-1.2 0-2.4 0.2-3.5 0.5L35.3 27.1C35.7 25.8 36 24.5 36 23 36 16.4 30.6 11 24 11ZM12.4 19.9C12.2 20.9 12 21.9 12 23c0 6.6 5.4 12 12 12 0.9 0 1.8-0.1 2.6-0.3zM2 21v4h6v-4zm38 0v4h6V21ZM10.7 33.5 7.1 37.1 9.9 39.9 13.5 36.3ZM22 39v5.9h4V39Z" />
  <path
    d="M 6.0715719,4.5283116 41.598456,42.180549"
    id="path4629"
    style="currentColor:none;fill-rule:evenodd;stroke:currentColor;stroke-width:5;stroke-linecap:round;stroke-linejoin:round;stroke-miterlimit:4;stroke-dasharray:none;stroke-opacity:1" />
</svg>
