<?xml version="1.0" encoding="UTF-8" standalone="no"?>
<svg
   xmlns:dc="http://purl.org/dc/elements/1.1/"
   xmlns:cc="http://creativecommons.org/ns#"
   xmlns:rdf="http://www.w3.org/1999/02/22-rdf-syntax-ns#"
   xmlns:svg="http://www.w3.org/2000/svg"
   xmlns="http://www.w3.org/2000/svg"
   xmlns:sodipodi="http://sodipodi.sourceforge.net/DTD/sodipodi-0.dtd"
   xmlns:inkscape="http://www.inkscape.org/namespaces/inkscape"
   width="48"
   height="48"
   viewBox="0 0 48 48"
   version="1.1"
   id="svg4"
   sodipodi:docname="remove-today-48px.svg"
   inkscape:version="0.92.5 (2060ec1f9f, 2020-04-08)">
  <metadata
     id="metadata10">
    <rdf:RDF>
      <cc:Work
         rdf:about="">
        <dc:format>image/svg+xml</dc:format>
        <dc:type
           rdf:resource="http://purl.org/dc/dcmitype/StillImage" />
      </cc:Work>
    </rdf:RDF>
  </metadata>
  <defs
     id="defs8" />
  <sodipodi:namedview
     pagecolor="#ffffff"
     bordercolor="#666666"
     borderopacity="1"
     objecttolerance="10"
     gridtolerance="10"
     guidetolerance="10"
     inkscape:pageopacity="0"
     inkscape:pageshadow="2"
     inkscape:window-width="1763"
     inkscape:window-height="1292"
     id="namedview6"
     showgrid="false"
     inkscape:zoom="1.7383042"
     inkscape:cx="25.483449"
     inkscape:cy="85.577181"
     inkscape:window-x="764"
     inkscape:window-y="27"
     inkscape:window-maximized="0"
     inkscape:current-layer="svg4" />
  <path
     d="M 22,1.0996094 V 7 h 4 V 1.0996094 Z M 7.7940943,4.9809653 2.9301179,4.9635858 14.224609,16.052734 l 16.72461,16.71875 9.647679,8.998545 4.91121,-0.06687 -12.375994,-12.408938 c 0.0048,-0.0068 0.657992,0.634462 0.662812,0.627652 l -16.671875,-16.75 c -0.02284,0.016 -0.04369,0.03462 -0.06641,0.05078 z M 38.070312,6.0996094 34.480469,9.6894531 37.310547,12.519531 40.900391,8.9296875 Z M 24,11 c -1.225606,0 -2.407955,0.186296 -3.521484,0.527344 L 35.474609,26.517578 C 35.81486,25.405235 36,24.224117 36,23 36,16.37 30.63,11 24,11 Z M 12.558594,19.390625 C 12.197537,20.529295 12,21.740992 12,23 c 0,6.63 5.37,12 12,12 1.239143,0 2.430042,-0.194321 3.552734,-0.544922 z M 2,21 v 4 h 6 v -4 z m 38,0 v 4 h 6 V 21 Z M 10.689453,33.480469 7.0996094,37.070312 9.9296875,39.900391 13.519531,36.310547 Z M 22,39 v 5.900391 h 4 V 39 Z"
     id="path2"
     inkscape:connector-curvature="0"
     sodipodi:nodetypes="cccccccccccccccccccccsccsscsscccccccccccccccccccccc" />
</svg>
