<?xml version="1.0" standalone="no"?>
<!DOCTYPE svg PUBLIC "-//W3C//DTD SVG 20010904//EN"
 "http://www.w3.org/TR/2001/REC-SVG-20010904/DTD/svg10.dtd">
<svg version="1.0" xmlns="http://www.w3.org/2000/svg"
 width="1024.000000pt" height="1024.000000pt" viewBox="0 0 1024.000000 1024.000000"
 preserveAspectRatio="xMidYMid meet">
<metadata>
Created by potrace 1.11, written by Peter Selinger 2001-2013
</metadata>
<g transform="translate(0.000000,1024.000000) scale(0.100000,-0.100000)"
fill="#000000" stroke="none">
<path d="M4785 10230 c-1318 -97 -2500 -656 -3398 -1608 -1037 -1099 -1534
-2623 -1347 -4133 231 -1861 1460 -3445 3208 -4133 436 -172 866 -275 1382
-333 218 -24 761 -24 985 0 787 86 1486 317 2134 705 1352 809 2259 2203 2451
3766 159 1297 -183 2606 -956 3659 l-72 98 -174 -318 c-95 -175 -914 -1672
-1818 -3326 -905 -1654 -1649 -3006 -1655 -3005 -13 4 -4136 3461 -4131 3465
1 1 864 -346 1917 -772 1053 -427 1919 -774 1926 -773 8 2 2540 3210 3805
4820 l29 37 -73 83 c-559 642 -1236 1121 -2008 1423 -442 173 -882 279 -1370
330 -172 19 -666 27 -835 15z"/>
</g>
</svg>
